<?xml version="1.0" encoding="UTF-8"?>
<svg xmlns="http://www.w3.org/2000/svg" width="600" height="600" viewBox="0 0 600 600" role="img" aria-label="BOB EN BERT logo">
  <rect width="100%" height="100%" fill="#c93b38"/>
  <path d="M 238 274 L 238 333 L 267 333 L 267 321 L 251 321 L 250 320 L 250 311 L 252 309 L 267 309 L 267 298 L 251 298 L 250 297 L 250 287 L 251 286 L 267 286 L 267 274 Z M 276 273 L 276 332 L 287 332 L 287 312 L 288 311 L 289 311 L 290 312 L 290 314 L 292 317 L 292 319 L 293 320 L 293 322 L 294 323 L 294 325 L 296 328 L 296 330 L 297 331 L 297 332 L 309 332 L 309 273 L 297 273 L 297 293 L 296 294 L 295 294 L 294 293 L 294 291 L 293 290 L 293 288 L 292 287 L 292 285 L 291 284 L 291 282 L 289 279 L 289 277 L 288 276 L 288 274 L 287 273 Z M 517 261 L 517 279 L 535 279 L 536 280 L 536 349 L 537 350 L 554 350 L 555 349 L 555 280 L 556 279 L 574 279 L 574 261 Z M 403 261 L 402 262 L 402 349 L 403 350 L 446 350 L 447 349 L 447 333 L 446 332 L 422 332 L 421 331 L 421 315 L 422 314 L 446 314 L 447 313 L 447 297 L 446 297 L 445 296 L 422 296 L 421 295 L 421 280 L 422 279 L 446 279 L 447 278 L 447 262 L 446 261 Z M 459 253 L 459 342 L 476 342 L 476 309 L 478 307 L 490 307 L 491 308 L 491 342 L 509 342 L 509 307 L 501 299 L 501 296 L 509 288 L 509 265 L 497 253 Z M 478 271 L 490 271 L 491 272 L 491 287 L 489 289 L 478 289 L 476 287 L 476 273 Z M 342 253 L 341 254 L 341 342 L 380 342 L 393 329 L 393 308 L 392 307 L 392 306 L 391 306 L 390 305 L 390 304 L 389 304 L 388 303 L 388 302 L 387 301 L 386 301 L 384 298 L 384 297 L 392 289 L 392 265 L 380 253 Z M 361 307 L 373 307 L 374 308 L 374 323 L 373 324 L 361 324 L 360 323 L 360 308 Z M 361 271 L 373 271 L 374 272 L 374 288 L 373 289 L 361 289 L 360 288 L 360 272 Z M 157 253 L 156 254 L 156 341 L 157 342 L 195 342 L 208 329 L 208 308 L 198 298 L 198 297 L 207 288 L 207 266 L 194 253 Z M 175 307 L 188 307 L 189 308 L 189 322 L 187 324 L 175 324 L 174 323 L 174 308 Z M 175 271 L 187 271 L 189 273 L 189 287 L 187 289 L 176 289 L 174 287 L 174 272 Z M 33 253 L 33 342 L 71 342 L 72 341 L 73 341 L 73 340 L 74 339 L 75 339 L 75 338 L 77 336 L 78 336 L 78 335 L 79 334 L 80 334 L 80 333 L 82 331 L 83 331 L 83 330 L 85 328 L 85 309 L 84 308 L 84 307 L 75 298 L 75 297 L 83 289 L 83 265 L 71 253 Z M 52 307 L 64 307 L 65 308 L 65 323 L 64 324 L 52 324 L 51 323 L 51 308 Z M 52 271 L 64 271 L 65 272 L 65 288 L 64 289 L 53 289 L 51 287 L 51 272 Z M 107 250 L 94 263 L 94 327 L 95 328 L 95 329 L 96 329 L 97 330 L 97 331 L 98 331 L 100 333 L 100 334 L 101 334 L 102 335 L 102 336 L 103 336 L 105 338 L 105 339 L 106 339 L 107 340 L 132 340 L 144 328 L 144 262 L 132 250 Z M 113 268 L 125 268 L 127 270 L 127 319 L 125 321 L 113 321 L 112 320 L 112 269 Z" fill="#ffffff" fill-rule="evenodd"/>
</svg>
